# xmcd
#
# Track frame offsets: 
#        150
#        13355
#        25970
#        35250
#        46972
#        62955
#        79515
#        92115
#        104167
#        117942
#        131792
#        144697
#        161197
#        172747
#        183042
#        193437
#        205832
#        219557
#        232252
#        247105
#
# Disc length: 3499 seconds
#
# Revision: 3
# Processed by: cddbd v1.5.2PL0 Copyright (c) Steve Scherf et al.
# Submitted via: ExactAudioCopyFreeDBPlugin 1.0
#
DISCID=2f0da914
DTITLE=Various Artist - The Very Best Of Country Music, Vol. 3
DYEAR=1994
DGENRE=Country
TTITLE0=Dolly Parton - Here You Come Again
TTITLE1=Don Williams - You're My Best Friend
TTITLE2=Jim Reeves - There's A Heartache Following Me
TTITLE3=Kenny Rogers - Me and Bobby McGee
TTITLE4=Ray Stevens - Everything Is Beautiful
TTITLE5=Oak Ridge Boys - Elvira
TTITLE6=Charley Pride - I'd Rather Love You
TTITLE7=Waylon Jennings - Don't Think Twice It's Allright
TTITLE8=The Desert Rose Band - True Love
TTITLE9=Merle Haggard - Driftwoord
TTITLE10=Patsy Cline - Someday (You'll Want Me To Want You)
TTITLE11=Lee Greenwood - Ring On Her Finger, Time On Her Hands
TTITLE12=Glen Campbell - I'm A One Woman Man
TTITLE13=Loretta Lynn - They Don't Make 'em Like My Daddy
TTITLE14=Willie Nelson - Heartaches By The Number
TTITLE15=Don Gibson - It's A Long Way To Georgia
TTITLE16=Hank Williams - Old Habits
TTITLE17=Hank Snow - I'm Moving On
TTITLE18=Alabama - Love In The First Degree
TTITLE19=The Bellamy Brothers - I Need More Of You
EXTD=
EXTT0=
EXTT1=
EXTT2=
EXTT3=
EXTT4=
EXTT5=
EXTT6=
EXTT7=
EXTT8=
EXTT9=
EXTT10=
EXTT11=
EXTT12=
EXTT13=
EXTT14=
EXTT15=
EXTT16=
EXTT17=
EXTT18=
EXTT19=
PLAYORDER=
